<svg width="97" height="96" viewBox="0 0 97 96" fill="none" xmlns="http://www.w3.org/2000/svg">
<rect x="4.86719" y="4" width="88" height="88" rx="44" fill="#F76056"/>
<rect x="4.86719" y="4" width="88" height="88" rx="44" stroke="white" stroke-width="8"/>
<g clip-path="url(#clip0_19454_673)">
<path d="M68.6484 31.125H29.0859C26.755 31.125 24.8672 33.0246 24.8672 35.3438V60.6562C24.8672 62.9892 26.7689 64.875 29.0859 64.875H68.6484C70.9598 64.875 72.8672 62.9972 72.8672 60.6562V35.3438C72.8672 33.0287 70.9868 31.125 68.6484 31.125ZM68.0576 33.9375L51.8503 50.0594C51.0534 50.8563 49.9941 51.295 48.8672 51.295C47.7403 51.295 46.6809 50.8562 45.8814 50.0568L29.6767 33.9375H68.0576ZM27.6797 60.0838V35.918L39.8333 48.0075L27.6797 60.0838ZM29.6785 62.0625L41.8273 49.991L43.8953 52.0481C45.2234 53.3762 46.9891 54.1075 48.8672 54.1075C50.7453 54.1075 52.511 53.3762 53.8364 52.0508L55.9071 49.991L68.0558 62.0625H29.6785ZM70.0547 60.0838L57.9011 48.0075L70.0547 35.918V60.0838Z" fill="#F1F1F1"/>
</g>
<defs>
<clipPath id="clip0_19454_673">
<rect width="48" height="48" fill="white" transform="translate(24.8672 24)"/>
</clipPath>
</defs>
</svg>
