<svg width="96" height="96" viewBox="0 0 96 96" fill="none" xmlns="http://www.w3.org/2000/svg">
<rect x="4" y="4" width="88" height="88" rx="44" fill="#F76056"/>
<rect x="4" y="4" width="88" height="88" rx="44" stroke="white" stroke-width="8"/>
<path d="M54 27.0001H54.66C55.0318 27.0011 55.3899 27.1401 55.665 27.3901L64.005 34.8901C64.1604 35.0303 64.2847 35.2016 64.37 35.3927C64.4552 35.5839 64.4995 35.7908 64.5 36.0001H55.5C55.1022 36.0001 54.7206 35.8421 54.4393 35.5608C54.158 35.2795 54 34.8979 54 34.5001V27.0001ZM64.5 39.0001V64.5001C64.4492 65.7349 63.9136 66.8999 63.0094 67.7423C62.1052 68.5847 60.9053 69.0367 59.67 69.0001H36.33C35.0947 69.0367 33.8948 68.5847 32.9906 67.7423C32.0864 66.8999 31.5508 65.7349 31.5 64.5001V31.5001C31.5508 30.2653 32.0864 29.1003 32.9906 28.2579C33.8948 27.4155 35.0947 26.9635 36.33 27.0001H51V34.5001C51 35.6936 51.4741 36.8382 52.318 37.6821C53.1619 38.526 54.3065 39.0001 55.5 39.0001H64.5ZM56.4 43.8001C56.0817 43.5614 55.6817 43.4589 55.2879 43.5152C54.894 43.5714 54.5387 43.7818 54.3 44.1001L46.335 54.7201L41.565 49.9351C41.2825 49.6527 40.8995 49.494 40.5 49.494C40.1005 49.494 39.7175 49.6527 39.435 49.9351C39.1525 50.2176 38.9939 50.6007 38.9939 51.0001C38.9939 51.3996 39.1525 51.7826 39.435 52.0651L45.435 58.0651C45.5752 58.2041 45.7414 58.3141 45.9241 58.3888C46.1069 58.4634 46.3026 58.5012 46.5 58.5001H46.605C46.8199 58.4846 47.0289 58.423 47.2179 58.3195C47.4068 58.2159 47.5713 58.0729 47.7 57.9001L56.7 45.9001C56.8182 45.7425 56.9042 45.5632 56.9531 45.3724C57.002 45.1816 57.0128 44.983 56.9849 44.788C56.9571 44.593 56.8911 44.4054 56.7907 44.2359C56.6903 44.0664 56.5576 43.9183 56.4 43.8001Z" fill="#F1F1F1"/>
</svg>
