<svg width="96" height="96" viewBox="0 0 96 96" fill="none" xmlns="http://www.w3.org/2000/svg">
<rect x="4" y="4" width="88" height="88" rx="44" fill="#F76056"/>
<rect x="4" y="4" width="88" height="88" rx="44" stroke="white" stroke-width="8"/>
<path d="M56.1 33.1492V31.5742C56.1 29.9992 54.975 28.7242 53.625 28.7242H51.825C51.675 28.7242 51.45 28.6492 51.375 28.4992C51.225 28.3492 51.225 28.1992 51.225 28.0492V27.6742C51.225 25.7242 49.8 24.0742 48.075 24.0742C46.35 24.2242 45 25.7992 45 27.7492V28.1242C45 28.2742 45 28.4242 44.85 28.5742C44.7 28.7242 44.55 28.7992 44.4 28.7992H42.6C41.7 28.7992 40.8 29.3992 40.425 30.3742C40.275 30.7492 40.125 31.1992 40.125 31.6492V33.2242H55.95L56.1 33.1492Z" fill="#F1F1F1"/>
<path d="M63.3008 30.3738C62.8508 30.0738 62.3258 29.9238 61.8008 29.9238H57.2258V30.0738C57.3008 30.2988 57.3008 31.3488 57.3008 31.5738V32.3988H59.8508C61.0508 32.3988 62.0258 33.3738 62.0258 34.5738V67.1238C62.0258 68.3238 61.0508 69.2988 59.8508 69.2988H36.3758C35.1758 69.2988 34.2008 68.3238 34.2008 67.1238V34.5738C34.2008 33.3738 35.1758 32.3988 36.3758 32.3988H38.9258V30.8988C38.9258 30.6738 38.9258 30.3738 39.0008 30.1488V29.9988H34.2008C32.6258 29.9988 31.4258 31.4238 31.4258 33.1488V68.6238C31.4258 70.3488 32.7008 71.7738 34.2008 71.7738H62.0258C62.6258 71.7738 63.1508 71.5488 63.6758 71.1738C64.2758 70.6488 64.6508 69.8238 64.6508 68.9238V32.8488C64.5758 31.7988 64.1258 30.8238 63.3008 30.3738Z" fill="#F1F1F1"/>
<path d="M38.9254 33.5996H36.3754C35.8504 33.5996 35.4004 34.0496 35.4004 34.5746V67.1246C35.4004 67.6496 35.8504 68.0996 36.3754 68.0996H59.8504C60.3754 68.0996 60.8254 67.6496 60.8254 67.1246V34.5746C60.8254 34.0496 60.3754 33.5996 59.8504 33.5996H57.3004V33.7496C57.3004 34.0496 57.0004 34.3496 56.7004 34.3496H39.5254C39.2254 34.3496 38.9254 34.0496 38.9254 33.7496V33.5996ZM39.9754 39.2246H56.1754C56.4754 39.2246 56.7754 39.5246 56.7754 39.8246C56.7754 40.1246 56.4754 40.4246 56.1754 40.4246H39.9754C39.6754 40.4246 39.3754 40.1246 39.3754 39.8246C39.3754 39.5246 39.6754 39.2246 39.9754 39.2246ZM39.9754 46.5746H56.1754C56.4754 46.5746 56.7754 46.8746 56.7754 47.1746C56.7754 47.4746 56.4754 47.7746 56.1754 47.7746H39.9754C39.6754 47.7746 39.3754 47.4746 39.3754 47.1746C39.3754 46.7996 39.6754 46.5746 39.9754 46.5746ZM39.9754 53.8496H56.1754C56.4754 53.8496 56.7754 54.1496 56.7754 54.4496C56.7754 54.7496 56.4754 55.0496 56.1754 55.0496H39.9754C39.6754 55.0496 39.3754 54.7496 39.3754 54.4496C39.3754 54.1496 39.6754 53.8496 39.9754 53.8496ZM39.9754 61.1996H56.1754C56.4754 61.1996 56.7754 61.4996 56.7754 61.7996C56.7754 62.0996 56.4754 62.3996 56.1754 62.3996H39.9754C39.6754 62.3996 39.3754 62.0996 39.3754 61.7996C39.3754 61.4246 39.6754 61.1996 39.9754 61.1996Z" fill="#F1F1F1"/>
</svg>
