<svg width="97" height="96" viewBox="0 0 97 96" fill="none" xmlns="http://www.w3.org/2000/svg">
<rect x="4.20117" y="4" width="88" height="88" rx="44" fill="#F76056"/>
<rect x="4.20117" y="4" width="88" height="88" rx="44" stroke="white" stroke-width="8"/>
<g clip-path="url(#clip0_19454_194)">
<path d="M72.1551 71.0471L65.1239 52.525C65.0655 52.3712 64.955 52.2427 64.8117 52.162L57.3224 47.9427L59.5089 44.4758C60.8509 42.3464 61.5603 39.8855 61.5603 37.3593C61.5603 29.993 55.5673 24 48.2009 24C40.8345 24 34.8416 29.993 34.8416 37.3593C34.8416 39.8862 35.5513 42.3471 36.8939 44.476L39.0799 47.9429L31.5903 52.162C31.447 52.2427 31.3364 52.3712 31.278 52.525L24.2468 71.0471C24.1956 71.1822 24.1873 71.3298 24.2229 71.4697C24.2585 71.6097 24.3364 71.7354 24.4459 71.8296C24.5554 71.9238 24.6912 71.9819 24.835 71.9962C24.9787 72.0105 25.1234 71.9802 25.2493 71.9093L36.5525 65.5413L47.8557 71.9093C47.9611 71.9687 48.08 71.9998 48.2009 71.9998C48.3218 71.9998 48.4407 71.9687 48.546 71.9093L59.8492 65.5413L71.1525 71.9093C71.2783 71.9803 71.4231 72.0108 71.5669 71.9966C71.7107 71.9824 71.8466 71.9242 71.9562 71.8299C72.0658 71.7357 72.1437 71.61 72.1793 71.4699C72.2148 71.3299 72.2064 71.1822 72.1551 71.0471ZM48.9041 60.4416C49.3513 60.2836 49.7319 59.979 49.9842 59.5775C50.0199 59.5212 56.0057 50.0306 56.0057 50.0306L59.0543 64.375L48.9041 70.0934V60.4416ZM38.0834 43.7257C36.8826 41.8217 36.2479 39.6202 36.2479 37.3593C36.2479 30.7683 41.61 25.4062 48.201 25.4062C54.792 25.4062 60.1541 30.7683 60.1541 37.3593C60.1541 39.6197 59.5196 41.8214 58.3195 43.7257C58.2257 43.8745 48.9611 58.5662 48.7995 58.82C48.798 58.8222 48.7967 58.8244 48.7953 58.8266C48.6649 59.0328 48.4428 59.1561 48.201 59.1561C47.959 59.1561 47.7359 59.0322 47.6053 58.8269C47.5114 58.678 38.2284 43.9572 38.0866 43.7309L38.0834 43.7257ZM32.5023 53.2621L39.0569 49.5696L37.9151 54.9418C37.8932 55.0444 37.8946 55.1505 37.9191 55.2524C37.9435 55.3543 37.9905 55.4495 38.0565 55.5309C38.1225 55.6124 38.2058 55.678 38.3005 55.7231C38.3951 55.7682 38.4986 55.7915 38.6035 55.7914C38.7644 55.7912 38.9204 55.7357 39.0455 55.6344C39.1705 55.533 39.257 55.3918 39.2905 55.2343L40.3964 50.031L46.4171 59.5794C46.6704 59.9798 47.051 60.2835 47.4977 60.4415V70.0936L37.3477 64.3751L38.7058 57.9852C38.725 57.8949 38.7263 57.8017 38.7095 57.7109C38.6926 57.6201 38.6581 57.5335 38.6078 57.4561C38.5575 57.3787 38.4925 57.3119 38.4164 57.2596C38.3403 57.2073 38.2547 57.1705 38.1643 57.1512C38.074 57.132 37.9808 57.1307 37.89 57.1475C37.7992 57.1643 37.7125 57.1988 37.6351 57.2491C37.5576 57.2994 37.4908 57.3645 37.4386 57.4406C37.3863 57.5167 37.3495 57.6024 37.3303 57.6927L35.9308 64.2774L26.2505 69.7312L32.5023 53.2621ZM60.4712 64.2775L57.3453 49.5695L63.8996 53.2621L70.1515 69.7312L60.4712 64.2775Z" fill="#F1F1F1"/>
<path d="M55.9355 37.3594C55.9355 33.0947 52.4659 29.625 48.2012 29.625C43.9365 29.625 40.4668 33.0947 40.4668 37.3594C40.4668 41.6241 43.9365 45.0938 48.2012 45.0938C52.4659 45.0938 55.9355 41.6241 55.9355 37.3594ZM41.873 37.3594C41.873 33.87 44.7118 31.0312 48.2012 31.0312C51.6905 31.0312 54.5293 33.87 54.5293 37.3594C54.5293 40.8488 51.6905 43.6875 48.2012 43.6875C44.7118 43.6875 41.873 40.8488 41.873 37.3594Z" fill="#F1F1F1"/>
<path d="M53.123 37.3594C53.123 34.6455 50.915 32.4375 48.2012 32.4375C45.4873 32.4375 43.2793 34.6455 43.2793 37.3594C43.2793 40.0732 45.4873 42.2812 48.2012 42.2812C50.915 42.2812 53.123 40.0732 53.123 37.3594ZM44.6855 37.3594C44.6855 35.4208 46.2626 33.8438 48.2012 33.8438C50.1397 33.8438 51.7168 35.4208 51.7168 37.3594C51.7168 39.2979 50.1397 40.875 48.2012 40.875C46.2626 40.875 44.6855 39.2979 44.6855 37.3594Z" fill="#F1F1F1"/>
</g>
<defs>
<clipPath id="clip0_19454_194">
<rect width="48" height="48" fill="white" transform="translate(24.2012 24)"/>
</clipPath>
</defs>
</svg>
