<svg width="96" height="96" viewBox="0 0 96 96" fill="none" xmlns="http://www.w3.org/2000/svg">
<rect x="4" y="4" width="88" height="88" rx="44" fill="#F76056"/>
<rect x="4" y="4" width="88" height="88" rx="44" stroke="white" stroke-width="8"/>
<path d="M61.5 42H60V36C60 29.382 54.618 24 48 24C41.382 24 36 29.382 36 36V42H34.5C33.307 42.0016 32.1633 42.4762 31.3198 43.3198C30.4762 44.1633 30.0016 45.307 30 46.5V67.5C30 69.982 32.02 72 34.5 72H61.5C63.98 72 66 69.982 66 67.5V46.5C66 44.018 63.98 42 61.5 42ZM40 36C40 31.588 43.588 28 48 28C52.412 28 56 31.588 56 36V42H40V36ZM50 57.444V62C50 62.5304 49.7893 63.0391 49.4142 63.4142C49.0391 63.7893 48.5304 64 48 64C47.4696 64 46.9609 63.7893 46.5858 63.4142C46.2107 63.0391 46 62.5304 46 62V57.444C44.81 56.75 44 55.474 44 54C44 51.794 45.794 50 48 50C50.206 50 52 51.794 52 54C52 55.474 51.19 56.75 50 57.444Z" fill="#F1F1F1"/>
</svg>
