<svg width="97" height="96" viewBox="0 0 97 96" fill="none" xmlns="http://www.w3.org/2000/svg">
<rect x="4.20117" y="4" width="88" height="88" rx="44" fill="#F76056"/>
<rect x="4.20117" y="4" width="88" height="88" rx="44" stroke="white" stroke-width="8"/>
<g clip-path="url(#clip0_19454_132)">
<path d="M62.1365 53.7343C61.1539 52.7111 59.9686 52.164 58.7124 52.164C57.4663 52.164 56.2709 52.7009 55.2477 53.7241L52.0463 56.9153C51.7829 56.7735 51.5195 56.6418 51.2663 56.5101C50.9016 56.3277 50.5571 56.1555 50.2633 55.9732C47.2646 54.0686 44.5395 51.5866 41.9257 48.3751C40.6594 46.7745 39.8084 45.4271 39.1904 44.0594C40.0212 43.2996 40.7911 42.5094 41.5408 41.7496C41.8244 41.466 42.1081 41.1722 42.3918 40.8885C44.5192 38.7611 44.5192 36.0055 42.3918 33.878L39.6261 31.1124C39.312 30.7983 38.9878 30.4741 38.6839 30.1499C38.0761 29.5218 37.4378 28.8735 36.7793 28.2656C35.7967 27.2931 34.6215 26.7764 33.3855 26.7764C32.1496 26.7764 30.9542 27.2931 29.9411 28.2656L29.9208 28.2859L26.4764 31.7607C25.1796 33.0575 24.4401 34.6379 24.278 36.4715C24.0349 39.4297 24.9061 42.1852 25.5747 43.9885C27.2159 48.4156 29.6676 52.5186 33.3248 56.9153C37.762 62.2137 43.1009 66.3977 49.1996 69.3457C51.5297 70.45 54.6398 71.7568 58.1147 71.9797C58.3274 71.9898 58.5503 72 58.7529 72C61.0931 72 63.0584 71.1591 64.5983 69.4876C64.6084 69.4673 64.6287 69.4572 64.6388 69.4369C65.1656 68.7987 65.7735 68.2212 66.4117 67.6032C66.8473 67.1879 67.2931 66.7523 67.7287 66.2964C68.7317 65.2529 69.2585 64.0372 69.2585 62.7911C69.2585 61.5349 68.7215 60.3294 67.6983 59.3163L62.1365 53.7343ZM65.7634 64.4019C65.7532 64.4019 65.7532 64.4121 65.7634 64.4019C65.3683 64.8274 64.963 65.2124 64.5274 65.6379C63.8689 66.266 63.2003 66.9245 62.5722 67.664C61.549 68.7582 60.3434 69.2748 58.763 69.2748C58.6111 69.2748 58.449 69.2748 58.297 69.2647C55.2882 69.0722 52.4921 67.897 50.395 66.8941C44.661 64.1183 39.6261 60.1774 35.4421 55.183C31.9875 51.0192 29.6777 47.1696 28.148 43.0362C27.2058 40.5137 26.8614 38.5483 27.0133 36.6944C27.1146 35.5091 27.5705 34.5264 28.4114 33.6856L31.8659 30.231C32.3623 29.765 32.8891 29.5117 33.4058 29.5117C34.044 29.5117 34.5607 29.8967 34.8849 30.2209L34.9153 30.2512C35.5333 30.8287 36.1208 31.4264 36.7388 32.0646C37.0529 32.3888 37.377 32.713 37.7012 33.0473L40.4669 35.813C41.5408 36.8869 41.5408 37.8797 40.4669 38.9535C40.1731 39.2473 39.8895 39.5411 39.5957 39.8248C38.7447 40.696 37.9342 41.5065 37.0529 42.2967C37.0326 42.3169 37.0123 42.3271 37.0022 42.3473C36.131 43.2186 36.2931 44.0696 36.4754 44.647L36.5058 44.7382C37.2251 46.4807 38.2382 48.1219 39.778 50.0771L39.7882 50.0872C42.5842 53.5317 45.5323 56.2163 48.7842 58.2728C49.1996 58.5362 49.6251 58.749 50.0303 58.9516C50.395 59.134 50.7395 59.3062 51.0333 59.4885C51.0738 59.5088 51.1143 59.5392 51.1548 59.5594C51.4993 59.7317 51.8235 59.8127 52.1578 59.8127C52.9986 59.8127 53.5254 59.2859 53.6977 59.1137L57.1624 55.649C57.5068 55.3045 58.0539 54.8892 58.6921 54.8892C59.3202 54.8892 59.8369 55.2843 60.1509 55.6287L60.1712 55.649L65.7532 61.231C66.7967 62.2644 66.7967 63.3281 65.7634 64.4019ZM50.1418 35.4179C52.796 35.8637 55.2071 37.1199 57.132 39.0447C59.0568 40.9696 60.3029 43.3807 60.7588 46.0349C60.8702 46.7036 61.4477 47.1696 62.1062 47.1696C62.1872 47.1696 62.2581 47.1594 62.3392 47.1493C63.0888 47.0277 63.5852 46.3186 63.4637 45.5689C62.9166 42.3575 61.397 39.4297 59.0771 37.1098C56.7571 34.7898 53.8294 33.2702 50.6179 32.7231C49.8682 32.6016 49.1692 33.098 49.0375 33.8375C48.9058 34.5771 49.3921 35.2964 50.1418 35.4179ZM72.1457 45.1738C71.2441 39.8856 68.7519 35.0735 64.9225 31.2441C61.0931 27.4146 56.281 24.9225 50.9927 24.0209C50.2532 23.8892 49.5542 24.3957 49.4225 25.1352C49.3009 25.8849 49.7973 26.5839 50.547 26.7156C55.2679 27.516 59.5735 29.7548 62.9977 33.1689C66.4218 36.5931 68.6506 40.8986 69.4509 45.6196C69.5624 46.2882 70.1398 46.7542 70.7983 46.7542C70.8794 46.7542 70.9503 46.7441 71.0313 46.7339C71.7709 46.6225 72.2774 45.9134 72.1457 45.1738Z" fill="#F1F1F1"/>
</g>
<defs>
<clipPath id="clip0_19454_132">
<rect width="48" height="48" fill="white" transform="translate(24.2012 24)"/>
</clipPath>
</defs>
</svg>
