<svg width="96" height="96" viewBox="0 0 96 96" fill="none" xmlns="http://www.w3.org/2000/svg">
<rect x="4" y="4" width="88" height="88" rx="44" fill="#F76056"/>
<rect x="4" y="4" width="88" height="88" rx="44" stroke="white" stroke-width="8"/>
<path d="M29.3399 35.1002V44.9102C29.3249 55.3202 35.8499 64.8152 45.5699 68.5502C47.1341 69.1513 48.8656 69.1513 50.4299 68.5502L51.8849 67.9952C60.8699 64.5302 66.6749 55.8452 66.6599 45.8702V35.1002C66.6599 34.2902 66.0299 33.6302 65.2199 33.6002C59.8349 33.3902 54.3299 31.2752 48.8849 27.2852C48.3599 26.9102 47.6399 26.9102 47.1149 27.2852C41.6699 31.2752 36.1649 33.3902 30.7799 33.6002C29.9699 33.6302 29.3399 34.2902 29.3399 35.1002ZM39.6149 46.7702C40.1999 46.1852 41.1599 46.1852 41.7449 46.7702L45.9899 51.0152L54.2549 42.7502C54.8399 42.1652 55.7999 42.1652 56.3849 42.7502C56.9699 43.3352 56.9699 44.2802 56.3849 44.8652L47.0549 54.1952C46.7699 54.4802 46.3799 54.6302 45.9899 54.6302C45.7923 54.6321 45.5964 54.5947 45.4135 54.52C45.2307 54.4453 45.0645 54.3349 44.9249 54.1952L39.6149 48.8852C39.4758 48.7464 39.3655 48.5816 39.2902 48.4001C39.2149 48.2186 39.1762 48.0241 39.1762 47.8277C39.1762 47.6312 39.2149 47.4367 39.2902 47.2552C39.3655 47.0738 39.4758 46.9089 39.6149 46.7702Z" fill="#F1F1F1"/>
</svg>
