<svg width="97" height="96" viewBox="0 0 97 96" fill="none" xmlns="http://www.w3.org/2000/svg">
<rect x="4.53516" y="4" width="88" height="88" rx="44" fill="#F76056"/>
<rect x="4.53516" y="4" width="88" height="88" rx="44" stroke="white" stroke-width="8"/>
<g clip-path="url(#clip0_19454_49)">
<path d="M66.5187 53.7906C67.1236 51.9232 67.4308 49.9757 67.4308 47.9912C67.4308 46.014 67.1259 44.0735 66.5246 42.2121C67.8469 41.7155 69.0493 40.9204 70.0475 39.8632C71.7727 38.0369 72.6831 35.6477 72.6114 33.1366C72.4627 27.9522 68.1245 23.8561 62.9394 24.004C60.4278 24.0758 58.0951 25.1213 56.3698 26.948C55.4986 27.8705 54.8358 28.9365 54.4018 30.0893C52.54 29.4884 50.5995 29.1833 48.6216 29.1833C46.6425 29.1833 44.7006 29.4892 42.8377 30.0908C41.4941 26.5353 38.0553 24 34.035 24C28.8484 24 24.6289 28.2195 24.6289 33.4058C24.6289 37.4257 27.1646 40.864 30.7201 42.2073C30.1181 44.0706 29.8126 46.0126 29.8126 47.9912C29.8126 49.9757 30.1198 51.9232 30.7248 53.7906C27.1667 55.1327 24.6289 58.5725 24.6289 62.5942C24.6289 64.01 24.9357 65.3712 25.5411 66.6398C25.5808 66.7231 25.6366 66.7978 25.7053 66.8596C25.7739 66.9214 25.854 66.9691 25.9411 66.9999C26.0282 67.0307 26.1204 67.0441 26.2127 67.0392C26.3049 67.0344 26.3952 67.0114 26.4786 66.9716C26.6468 66.8912 26.7763 66.7473 26.8385 66.5715C26.9007 66.3958 26.8906 66.2025 26.8105 66.0341C26.2959 64.956 26.0352 63.7987 26.0352 62.5942C26.0352 58.1836 29.624 54.5951 34.035 54.5951C38.4464 54.5951 42.0353 58.1836 42.0353 62.5942C42.0353 67.0052 38.4464 70.5938 34.035 70.5938C32.0232 70.5938 30.1001 69.8441 28.6206 68.4829C28.3347 68.22 27.8896 68.2387 27.627 68.5243C27.5645 68.5923 27.516 68.6719 27.4842 68.7586C27.4524 68.8453 27.4381 68.9374 27.4419 69.0296C27.4458 69.1219 27.4678 69.2125 27.5066 69.2962C27.5455 69.38 27.6005 69.4553 27.6685 69.5178C29.4083 71.1186 31.6693 72 34.035 72C38.0611 72 41.5043 69.457 42.8435 65.8934C44.7043 66.4941 46.6444 66.799 48.6216 66.799C50.5992 66.799 52.5397 66.4941 54.4003 65.8938C55.7398 69.4575 59.1828 72 63.2089 72C68.3955 72 72.615 67.7805 72.615 62.5942C72.615 58.5725 70.0772 55.1323 66.5187 53.7906ZM57.3924 27.9133C58.8594 26.3599 60.8439 25.4707 62.98 25.4095C63.0574 25.4073 63.1348 25.4062 63.2122 25.4062C67.5181 25.4062 71.0817 28.8454 71.2054 33.1765C71.2666 35.3123 70.4924 37.344 69.0254 38.8978C67.5583 40.4513 65.5738 41.3405 63.4378 41.4016C63.3604 41.4038 63.283 41.4049 63.2055 41.4049C58.8996 41.4049 55.3361 37.9658 55.2123 33.6347C55.1507 31.4989 55.9253 29.4668 57.3924 27.9133ZM54.0059 64.5432C52.2734 65.1065 50.4655 65.3928 48.6216 65.3928C46.7785 65.3928 44.9705 65.1065 43.2379 64.5432C43.3734 63.9024 43.4416 63.2492 43.4415 62.5942C43.4415 57.4079 39.2217 53.1889 34.035 53.1889C33.363 53.1889 32.7075 53.2602 32.0751 53.3947C31.5071 51.6559 31.2189 49.8413 31.2189 47.9912C31.2189 46.1469 31.5057 44.3382 32.0699 42.6038C32.7159 42.7418 33.3745 42.8113 34.035 42.8111C35.6464 42.8111 37.2361 42.3966 38.6332 41.6125C38.9716 41.4225 39.092 40.9941 38.902 40.6553C38.7119 40.3166 38.2834 40.1964 37.9448 40.3865C36.7574 41.0527 35.4054 41.4049 34.035 41.4049C29.6236 41.4049 26.0352 37.8164 26.0352 33.4054C26.0352 28.9947 29.624 25.4062 34.035 25.4062C38.4464 25.4062 42.0353 28.9947 42.0353 33.4058C42.0353 35.2511 41.3919 37.0514 40.2237 38.4756C39.9771 38.7756 40.0212 39.2186 40.3214 39.4651C40.4656 39.5833 40.6509 39.6394 40.8364 39.6211C41.0219 39.6027 41.1926 39.5114 41.3109 39.3673C42.6846 37.6927 43.4415 35.5751 43.4415 33.4054C43.4415 32.732 43.3693 32.0746 43.2342 31.4407C44.9683 30.8763 46.7773 30.5896 48.6216 30.5896C50.4655 30.5896 52.2738 30.876 54.0071 31.4395C53.852 32.1741 53.7847 32.9245 53.8064 33.6749C53.9525 38.7678 58.142 42.8115 63.2052 42.8111C63.8668 42.8112 64.5266 42.7422 65.1739 42.6053C65.7379 44.339 66.0247 46.1477 66.0247 47.9913C66.0247 49.8413 65.7361 51.656 65.1685 53.3947C64.5243 53.2576 63.8675 53.1886 63.2089 53.1889C58.0222 53.1889 53.8028 57.408 53.8028 62.5942C53.8028 63.2626 53.8731 63.9144 54.0059 64.5432ZM63.2089 70.5938C58.7975 70.5938 55.209 67.0053 55.209 62.5946C55.209 58.1836 58.7975 54.5951 63.2089 54.5951C67.6202 54.5951 71.2088 58.1836 71.2088 62.5946C71.2088 67.0053 67.6202 70.5938 63.2089 70.5938Z" fill="#F1F1F1"/>
<path d="M38.8223 29.2548C38.704 29.1743 38.5639 29.1318 38.4208 29.1331C38.2776 29.1343 38.1383 29.1792 38.0214 29.2618C37.7826 29.4301 37.5259 29.5715 37.256 29.6833C36.29 28.9274 34.8899 28.9362 33.9309 29.7701C33.4361 30.1996 33.1211 30.7995 33.0482 31.4506C32.5333 31.374 32.0394 31.1933 31.5966 30.9196C31.1538 30.6458 30.7714 30.2847 30.4727 29.8583C30.4011 29.7566 30.3039 29.6757 30.1909 29.6238C30.0778 29.5719 29.9531 29.5509 29.8293 29.5628C29.7054 29.5748 29.587 29.6195 29.486 29.6922C29.385 29.765 29.3052 29.8633 29.2546 29.977C29.2346 30.0224 28.7614 31.1034 28.8218 32.4266C28.868 33.4391 29.2302 34.7443 30.5511 35.7521C30.074 35.9065 29.5734 35.9757 29.0723 35.9565C28.9143 35.9503 28.7589 35.9976 28.6311 36.0907C28.5033 36.1837 28.4106 36.3171 28.3679 36.4693C28.3252 36.6215 28.3351 36.7836 28.3958 36.9296C28.4566 37.0755 28.5647 37.1967 28.7028 37.2736C29.8059 37.8864 30.9876 38.1933 32.1422 38.1933C33.2515 38.1933 34.3355 37.9098 35.3001 37.3425C36.5097 36.631 37.3886 35.5416 37.8658 34.2111C37.8808 34.1774 37.8932 34.1423 37.9032 34.106C38.1485 33.3835 38.277 32.592 38.277 31.7527C38.277 31.7161 38.2759 31.6791 38.2745 31.6425C38.6768 31.1682 38.9629 30.6067 39.1102 30.0026C39.1439 29.8635 39.1344 29.7174 39.083 29.5838C39.0316 29.4502 38.9407 29.3354 38.8224 29.2548H38.8223ZM36.8491 31.5333C36.8631 31.6066 36.8704 31.6824 36.8704 31.755C36.8704 32.4441 36.7679 33.0825 36.5727 33.6592C36.562 33.6859 36.5531 33.7133 36.5459 33.7412C36.1809 34.763 35.5162 35.5837 34.5871 36.1305C33.7368 36.6311 32.7609 36.8442 31.7662 36.772C31.9941 36.6592 32.2141 36.531 32.4246 36.3883C32.5283 36.3178 32.6113 36.2208 32.665 36.1075C32.7187 35.9942 32.7411 35.8686 32.73 35.7437C32.7189 35.6188 32.6745 35.4992 32.6016 35.3972C32.5286 35.2951 32.4297 35.2145 32.3151 35.1636C31.0022 34.5802 30.3002 33.6523 30.2288 32.406C30.2157 32.1642 30.2243 31.9217 30.2545 31.6814C31.2216 32.4895 32.4605 32.9305 33.7536 32.8971C33.9369 32.8924 34.1111 32.8164 34.2391 32.6851C34.3671 32.5538 34.4388 32.3777 34.4388 32.1944V31.7582C34.4362 31.5828 34.472 31.409 34.5437 31.2489C34.6153 31.0888 34.7211 30.9463 34.8537 30.8313C35.3562 30.3945 36.12 30.4475 36.5569 30.95C36.6427 31.0486 36.7544 31.1212 36.8792 31.1598C36.8358 31.2794 36.8254 31.4084 36.8492 31.5333H36.8491ZM60.8946 33.9599H61.8914V38.1526C61.8914 38.3391 61.9655 38.518 62.0974 38.6498C62.2292 38.7817 62.4081 38.8558 62.5946 38.8558C62.781 38.8558 62.9599 38.7817 63.0918 38.6498C63.2236 38.518 63.2977 38.3391 63.2977 38.1526V33.9599H64.3835C64.7716 33.9599 65.0866 33.6449 65.0866 33.2567C65.0866 32.8686 64.7716 32.5536 64.3835 32.5536H63.2977V30.5864C63.2977 29.9111 63.8474 29.3613 64.523 29.3613H65.4333C65.8216 29.3613 66.1364 29.0464 66.1364 28.6582C66.1364 28.4717 66.0624 28.2929 65.9305 28.161C65.7986 28.0292 65.6198 27.9551 65.4333 27.9551H64.523C63.072 27.9551 61.8914 29.1354 61.8914 30.5864V32.5536H60.8946C60.5065 32.5536 60.1915 32.8686 60.1915 33.2567C60.1915 33.6449 60.5065 33.9599 60.8946 33.9599ZM32.4392 66.2303C32.6067 66.2303 32.7739 66.1872 32.923 66.1011L37.709 63.3366C37.8559 63.2515 37.9779 63.1293 38.0628 62.9823C38.1477 62.8352 38.1925 62.6685 38.1928 62.4987C38.1928 62.1544 38.0075 61.8333 37.709 61.6612L32.9231 58.8966C32.776 58.8118 32.6092 58.7672 32.4395 58.7672C32.2697 58.7672 32.1029 58.8118 31.9559 58.8966C31.8089 58.9817 31.6868 59.1039 31.6018 59.2509C31.5169 59.3979 31.472 59.5647 31.4717 59.7345V65.2633C31.4717 65.6078 31.6574 65.929 31.9559 66.1011C32.1028 66.1861 32.2695 66.2307 32.4392 66.2304V66.2303ZM32.878 60.4948L36.3482 62.4991L32.878 64.5033V60.4948ZM66.2637 57.6142H60.153C59.0918 57.6142 58.2282 58.4776 58.2282 59.5394V65.6489C58.2282 66.7105 59.0917 67.574 60.153 67.574H66.2637C67.3249 67.574 68.1884 66.7105 68.1884 65.6489V59.5394C68.1884 58.4777 67.3249 57.6142 66.2637 57.6142ZM66.7821 65.6489C66.7821 65.7864 66.7274 65.9183 66.6302 66.0156C66.533 66.1128 66.4012 66.1676 66.2637 66.1678H60.153C60.0155 66.1676 59.8836 66.1129 59.7864 66.0156C59.6891 65.9183 59.6345 65.7864 59.6344 65.6489V59.5394C59.6345 59.4018 59.6892 59.2699 59.7864 59.1727C59.8837 59.0754 60.0155 59.0206 60.153 59.0204H66.2637C66.4012 59.0207 66.533 59.0755 66.6301 59.1727C66.7273 59.27 66.782 59.4019 66.7821 59.5394V65.6489Z" fill="#F1F1F1"/>
<path d="M63.2094 60.4682C62.0375 60.4682 61.0839 61.4218 61.0839 62.5937C61.0839 63.7656 62.0375 64.7188 63.2094 64.7188C64.3812 64.7188 65.3348 63.7656 65.3348 62.5937C65.3348 61.4218 64.3812 60.4682 63.2094 60.4682ZM63.2094 63.3126C62.8128 63.3126 62.4901 62.9899 62.4901 62.5937C62.4901 62.1972 62.8127 61.8745 63.2094 61.8745C63.606 61.8745 63.9285 62.1971 63.9285 62.5937C63.9285 62.9899 63.6059 63.3126 63.2094 63.3126ZM53.7109 40.6954C53.5244 40.6954 53.3456 40.7695 53.2137 40.9013C53.0818 41.0332 53.0078 41.2121 53.0078 41.3985V41.7138C52.016 42.2985 50.9778 42.8006 49.9037 43.2149C49.0428 43.546 48.161 43.8199 47.2641 44.0349C47.1222 43.9249 46.9478 43.8651 46.7682 43.8649H43.5489C42.7711 43.8649 42.1387 44.4977 42.1387 45.2752V48.9677C42.1387 49.7456 42.7711 50.378 43.549 50.378H44.1924L44.4362 55.0662C44.441 55.1584 44.4639 55.2488 44.5037 55.3321C44.5434 55.4155 44.5992 55.4902 44.6678 55.5519C44.7364 55.6137 44.8165 55.6614 44.9035 55.6922C44.9905 55.723 45.0828 55.7364 45.175 55.7316C45.3612 55.7219 45.5359 55.6386 45.6607 55.5001C45.7855 55.3616 45.8502 55.1792 45.8406 54.993L45.6004 50.378H46.7682C46.9547 50.378 47.1264 50.3143 47.2638 50.2084C47.8346 50.346 48.3994 50.5074 48.9567 50.6922C49.0444 50.7212 49.1369 50.7328 49.229 50.7261C49.3211 50.7194 49.411 50.6946 49.4935 50.6532C49.576 50.6118 49.6496 50.5545 49.71 50.4847C49.7704 50.4148 49.8165 50.3338 49.8455 50.2461C49.8746 50.1585 49.8861 50.066 49.8795 49.9739C49.8728 49.8818 49.848 49.7919 49.8066 49.7094C49.7652 49.6268 49.7079 49.5533 49.6381 49.4929C49.5682 49.4325 49.4872 49.3864 49.3995 49.3573C48.801 49.1589 48.1943 48.9856 47.5812 48.8381V45.4056C48.5422 45.1754 49.4869 44.8819 50.4091 44.5271C51.2999 44.1836 52.1677 43.7835 53.0075 43.3294V50.9151C52.6993 50.7486 52.3872 50.5894 52.0715 50.4376C51.9883 50.3975 51.898 50.3743 51.8058 50.3691C51.7136 50.364 51.6213 50.377 51.5342 50.4076C51.447 50.4381 51.3668 50.4855 51.298 50.5471C51.2292 50.6087 51.1732 50.6833 51.1332 50.7665C51.0932 50.8497 51.0699 50.94 51.0648 51.0322C51.0597 51.1244 51.0727 51.2167 51.1033 51.3039C51.1338 51.391 51.1812 51.4713 51.2428 51.5402C51.3044 51.609 51.3789 51.665 51.4621 51.705C51.9883 51.9589 52.5039 52.2343 53.0075 52.5305V52.8444C53.0075 53.0309 53.0816 53.2097 53.2134 53.3416C53.3453 53.4734 53.5241 53.5475 53.7106 53.5475C53.8971 53.5475 54.0759 53.4734 54.2078 53.3416C54.3397 53.2097 54.4137 53.0309 54.4137 52.8444V41.3984C54.4138 41.3061 54.3956 41.2147 54.3603 41.1294C54.3251 41.0441 54.2733 40.9666 54.208 40.9013C54.1428 40.836 54.0653 40.7842 53.98 40.7488C53.8947 40.7135 53.8033 40.6953 53.711 40.6953L53.7109 40.6954ZM46.1754 48.9714L43.5449 48.9677L43.549 45.2712H46.1754V48.9714Z" fill="#F1F1F1"/>
</g>
<defs>
<clipPath id="clip0_19454_49">
<rect width="48" height="48" fill="white" transform="translate(24.5352 24)"/>
</clipPath>
</defs>
</svg>
