<svg width="44" height="43" viewBox="0 0 44 43" fill="none" xmlns="http://www.w3.org/2000/svg">
<path d="M43.8852 16.0179C43.7446 15.5819 43.4786 15.1969 43.1207 14.911C42.7627 14.625 42.3284 14.4508 41.8721 14.41L29.1725 13.2567L24.1507 1.50276C23.7803 0.641389 22.9371 0.0839844 22.0002 0.0839844C21.0633 0.0839844 20.22 0.641475 19.8497 1.50491L14.8279 13.2568L2.1263 14.41C1.67049 14.4517 1.23696 14.6263 0.879451 14.9122C0.521946 15.198 0.256193 15.5824 0.115139 16.0179C-0.174563 16.9089 0.0929669 17.8861 0.798961 18.5021L10.3984 26.9208L7.56774 39.3898C7.36063 40.3066 7.71642 41.2543 8.47716 41.8042C8.88597 42.0996 9.3644 42.25 9.84678 42.25C10.2627 42.25 10.6752 42.1379 11.0456 41.9163L22.0002 35.3691L32.9508 41.9163C33.7521 42.3984 34.7622 42.3544 35.5213 41.8042C35.8928 41.5352 36.1772 41.1629 36.3389 40.7337C36.5005 40.3044 36.5325 39.8371 36.4307 39.3898L33.6001 26.9208L43.1994 18.5039C43.5448 18.2023 43.7939 17.8059 43.9158 17.3639C44.0377 16.9219 44.0271 16.4539 43.8852 16.0179Z" fill="#FFC400"/>
</svg>
