<svg width="96" height="96" viewBox="0 0 96 96" fill="none" xmlns="http://www.w3.org/2000/svg">
<rect x="4" y="4" width="88" height="88" rx="44" fill="#F76056"/>
<rect x="4" y="4" width="88" height="88" rx="44" stroke="white" stroke-width="8"/>
<g clip-path="url(#clip0_19454_568)">
<path d="M53.3051 45.4644H68.9864C69.3707 45.4644 69.6894 45.1457 69.6894 44.7614V41.6026C69.6894 41.2183 69.3707 40.8996 68.9864 40.8996H53.3051C52.9208 40.8996 52.6021 41.2183 52.6021 41.6026V44.7614C52.6021 45.1551 52.9208 45.4644 53.3051 45.4644ZM32.1686 51.3882H40.3139C43.9601 51.3882 46.922 48.4263 46.922 44.7801C46.922 41.134 43.9601 38.1721 40.3139 38.1721H32.1686C28.5225 38.1721 25.5605 41.134 25.5605 44.7801C25.5605 48.4263 28.5225 51.3882 32.1686 51.3882ZM38.7017 42.2869C38.4955 41.9776 38.5705 41.5464 38.8892 41.3402C39.1985 41.134 39.6297 41.209 39.8359 41.5276L41.2044 43.5616L42.5728 41.5276C42.7791 41.2183 43.2102 41.134 43.5195 41.3402C43.8289 41.5464 43.9132 41.9776 43.707 42.2869L42.0292 44.7801L43.707 47.2734C43.9132 47.5827 43.8382 48.0139 43.5195 48.2201C43.4071 48.2951 43.2665 48.3326 43.1446 48.3326C42.929 48.3326 42.7134 48.2295 42.5822 48.0326L41.2137 45.9986L39.8453 48.0326C39.714 48.2295 39.4985 48.3326 39.2829 48.3326C39.1516 48.3326 39.0204 48.2951 38.9079 48.2201C38.5986 48.0139 38.5143 47.5827 38.7205 47.2734L40.3983 44.7801L38.7017 42.2869ZM35.3836 41.2277C35.6648 41.2277 35.9179 41.3964 36.021 41.6589L37.4738 45.3425L38.2518 47.3203C38.3924 47.6671 38.2143 48.0701 37.8675 48.2013C37.5207 48.3419 37.1177 48.1639 36.9864 47.817L36.3772 46.2798H34.3901L33.7527 47.892C33.6496 48.1639 33.3871 48.3232 33.1153 48.3232C33.031 48.3232 32.9466 48.3044 32.8622 48.2763C32.5154 48.1357 32.3373 47.7421 32.4779 47.3953L34.7463 41.6495C34.8494 41.3964 35.1024 41.2277 35.3836 41.2277ZM29.3473 41.2277H32.7779C33.1528 41.2277 33.4621 41.537 33.4621 41.9119C33.4621 42.2869 33.1528 42.5962 32.7779 42.5962H31.7468V47.6577C31.7468 48.0326 31.4375 48.3419 31.0626 48.3419C30.6877 48.3419 30.3784 48.0326 30.3784 47.6577V42.5962H29.3473C28.9724 42.5962 28.6631 42.2869 28.6631 41.9119C28.6631 41.537 28.9724 41.2277 29.3473 41.2277ZM54.0456 57.3121H68.0866C68.4709 57.3121 68.7896 56.9934 68.7896 56.6091V53.4503C68.7896 53.066 68.4709 52.7473 68.0866 52.7473H52.4053C52.021 52.7473 51.7023 53.066 51.7023 53.4503V56.6091C51.7023 56.9934 52.021 57.3121 52.4053 57.3121H54.0456ZM61.1505 36.4661C63.7375 36.4661 65.8464 34.3572 65.8464 31.7702C65.8464 29.1832 63.7375 27.0742 61.1505 27.0742C58.5635 27.0742 56.4545 29.1832 56.4545 31.7702C56.4545 34.3572 58.5635 36.4661 61.1505 36.4661ZM62.6127 33.9166C62.2378 33.9166 61.9284 33.6073 61.9284 33.2324C61.9284 32.8575 62.2378 32.5482 62.6127 32.5482C62.9876 32.5482 63.2969 32.8575 63.2969 33.2324C63.2969 33.6073 62.9876 33.9166 62.6127 33.9166ZM59.6883 29.6237C60.0632 29.6237 60.3725 29.933 60.3725 30.308C60.3725 30.6829 60.0632 30.9922 59.6883 30.9922C59.3133 30.9922 59.004 30.6829 59.004 30.308C59.004 29.933 59.3133 29.6237 59.6883 29.6237ZM58.5447 33.4105L62.7908 29.1644C63.0532 28.902 63.4844 28.902 63.7562 29.1644C64.0187 29.4269 64.0187 29.8581 63.7562 30.1299L59.5102 34.3759C59.3789 34.5071 59.2009 34.5728 59.0321 34.5728C58.854 34.5728 58.6853 34.5071 58.5541 34.3759C58.2823 34.1135 58.2823 33.6823 58.5447 33.4105Z" fill="#F1F1F1"/>
<path d="M61.1502 39.5407C65.4337 39.5407 68.9205 36.0539 68.9205 31.7704C68.9205 27.4868 65.4337 24 61.1502 24C56.8666 24 53.3798 27.4868 53.3798 31.7704C53.3798 36.0539 56.8666 39.5407 61.1502 39.5407ZM61.1502 25.7153C64.487 25.7153 67.2052 28.4335 67.2052 31.7704C67.2052 35.1072 64.487 37.8254 61.1502 37.8254C57.8133 37.8254 55.0951 35.1072 55.0951 31.7704C55.0951 28.4335 57.8133 25.7153 61.1502 25.7153ZM35.3833 43.768L34.9241 44.9303H35.8426L35.3833 43.768ZM44.0816 58.6807H30.7717C30.3874 58.6807 30.0687 58.9994 30.0687 59.3837V62.5425C30.0687 62.9268 30.3874 63.2455 30.7717 63.2455H46.453C46.8373 63.2455 47.156 62.9268 47.156 62.5425V59.3837C47.156 58.9994 46.8373 58.6807 46.453 58.6807H44.0816ZM50.8866 65.3076V68.4663C50.8866 68.8506 51.2052 69.1693 51.5895 69.1693H67.2709C67.6552 69.1693 67.9738 68.8506 67.9738 68.4663V65.3076C67.9738 64.9233 67.6552 64.6046 67.2709 64.6046H51.5989C51.2052 64.6046 50.8866 64.9139 50.8866 65.3076ZM50.7553 51.3884H66.4366C66.8209 51.3884 67.1396 51.0697 67.1396 50.6854V47.5267C67.1396 47.1424 66.8209 46.8237 66.4366 46.8237H50.7553C50.371 46.8237 50.0523 47.1424 50.0523 47.5267V50.6854C50.0523 51.0791 50.371 51.3884 50.7553 51.3884ZM54.0453 58.6807C53.661 58.6807 53.3423 58.9994 53.3423 59.3837V62.5425C53.3423 62.9268 53.661 63.2455 54.0453 63.2455H69.7266C70.1109 63.2455 70.4296 62.9268 70.4296 62.5425V59.3837C70.4296 58.9994 70.1109 58.6807 69.7266 58.6807H68.0863H54.0453ZM29.5907 69.1599H45.272C45.6563 69.1599 45.975 68.8412 45.975 68.4569V65.2982C45.975 64.9139 45.6563 64.5952 45.272 64.5952H29.5907C29.2064 64.5952 28.8877 64.9139 28.8877 65.2982V68.4569C28.8877 68.8506 29.197 69.1599 29.5907 69.1599ZM44.0816 57.3122C44.4659 57.3122 44.7846 56.9936 44.7846 56.6093V53.4505C44.7846 53.0662 44.4659 52.7475 44.0816 52.7475H28.4003C28.016 52.7475 27.6973 53.0662 27.6973 53.4505V56.6093C27.6973 56.9936 28.016 57.3122 28.4003 57.3122H30.7717H44.0816ZM71.2451 70.6315H24.7448C24.3699 70.6315 24.0605 70.9408 24.0605 71.3158C24.0605 71.6907 24.3699 72 24.7448 72H71.2545C71.6294 72 71.9387 71.6907 71.9387 71.3158C71.9293 70.9315 71.6294 70.6315 71.2451 70.6315Z" fill="#F1F1F1"/>
</g>
<defs>
<clipPath id="clip0_19454_568">
<rect width="48" height="48" fill="white" transform="translate(24 24)"/>
</clipPath>
</defs>
</svg>
