<svg width="96" height="96" viewBox="0 0 96 96" fill="none" xmlns="http://www.w3.org/2000/svg">
<rect x="4" y="4" width="88" height="88" rx="44" fill="#F76056"/>
<rect x="4" y="4" width="88" height="88" rx="44" stroke="white" stroke-width="8"/>
<g clip-path="url(#clip0_19454_173)">
<path d="M25.4375 45.0889C24.6533 45.0889 24.0176 45.7247 24.0176 46.5088V67.3643C24.0176 68.1485 24.6534 68.7842 25.4375 68.7842H33.9925V45.0889H25.4375ZM71.9811 52.93C71.9811 51.1275 71.0126 49.5469 69.5686 48.6812C70.1412 47.8557 70.4475 46.8747 70.4463 45.8701C70.4463 43.1408 68.2258 40.9202 65.4964 40.9202H55.0472C55.3675 39.4689 55.8055 37.2912 56.1105 35.0115C56.9041 29.0789 56.3617 25.7888 54.4035 24.6573C53.1827 23.952 51.8665 23.8089 50.6972 24.2541C49.794 24.5981 48.5741 25.444 47.8789 27.5201L45.1326 34.7108C43.7403 38.1493 39.4767 41.7592 36.8325 43.7552V69.4125C41.7331 71.1296 46.847 72 52.0642 72H63.4498C66.1791 72 68.3997 69.7794 68.3997 67.0501C68.4008 66.1288 68.1432 65.2256 67.6562 64.4435C69.3063 63.6399 70.4461 61.9454 70.4461 59.9901C70.4473 58.9854 70.141 58.0045 69.5685 57.179C71.0126 56.3133 71.9811 54.7326 71.9811 52.93Z" fill="#F1F1F1"/>
</g>
<defs>
<clipPath id="clip0_19454_173">
<rect width="48" height="48" fill="white" transform="translate(24 24)"/>
</clipPath>
</defs>
</svg>
