<svg width="23" height="24" viewBox="0 0 23 24" fill="none" xmlns="http://www.w3.org/2000/svg">
<path d="M10.9193 0.364914C10.8304 0.561405 10.5123 1.23509 10.2082 1.85731C9.38015 3.57427 9.01524 4.16374 8.80004 4.16374C8.65969 4.16374 8.12635 3.86901 7.43863 3.41053C7.09711 3.18596 6.81641 3.00819 6.80705 3.01287C6.80238 3.02222 6.88191 3.43392 6.98483 3.9345C7.4901 6.38129 7.78015 8.14503 7.8129 8.99181C7.84565 9.73099 7.81758 9.79181 7.52752 9.59532C7.28425 9.42222 5.97431 8.09825 5.1322 7.16725L4.48191 6.45146L4.38366 6.86316C4.18249 7.71462 3.96261 8.21521 3.76612 8.26667C3.4667 8.34152 2.47957 8.13099 1.23045 7.72398C0.832784 7.59766 0.50062 7.49942 0.491264 7.50877C0.481907 7.51813 0.547404 7.7193 0.636293 7.96257C1.29126 9.71228 1.62343 10.952 1.51583 11.2374C1.46904 11.3637 1.19302 11.5135 0.477229 11.8082C0.219919 11.9158 3.54881e-05 12.014 3.54881e-05 12.0327C-0.00464288 12.0468 0.453837 12.4117 1.01992 12.8421C3.45267 14.6994 5.08542 16.0187 5.54857 16.5053C5.78249 16.7532 5.81524 16.8094 5.78717 16.9216C5.75442 17.0667 5.28191 18.2409 5.17431 18.4468C5.13688 18.5216 5.11817 18.5918 5.1322 18.6058C5.14156 18.6199 5.80121 18.531 6.59653 18.414C8.72518 18.0959 9.91349 17.9602 10.4094 17.9743L10.8398 17.9883L10.8819 18.1287C10.9848 18.4795 10.9006 20.9263 10.7041 23.1579C10.6667 23.5836 10.634 23.9439 10.634 23.9626C10.634 23.986 10.8492 24 11.1065 24H11.579L11.5509 23.7567C11.3264 21.8854 11.2047 18.2596 11.3591 18.0117C11.448 17.8667 13.0433 18.0211 15.7708 18.4374C16.4726 18.545 17.0573 18.6199 17.0667 18.6105C17.0807 18.6012 16.9825 18.3485 16.8515 18.0538C16.5193 17.3006 16.3743 16.8608 16.4304 16.7579C16.5942 16.4491 18.4936 14.8865 21.2866 12.7626C21.7731 12.393 22.1755 12.0749 22.1802 12.0515C22.1895 12.0281 21.9696 11.9111 21.6889 11.7988C20.9217 11.476 20.7252 11.3591 20.6831 11.2C20.5942 10.8725 20.9123 9.70292 21.5673 7.96257C21.6562 7.7193 21.7217 7.51813 21.7123 7.50877C21.703 7.49942 21.3708 7.59298 20.9778 7.72398C19.6866 8.14035 18.7416 8.34152 18.4281 8.26199C18.2363 8.21521 17.979 7.60234 17.7825 6.72281L17.7217 6.45614L16.931 7.32164C16.4959 7.79883 15.7942 8.52398 15.3731 8.94035C14.4515 9.84795 14.4094 9.86199 14.386 9.28655C14.3673 8.81871 14.4281 8.24328 14.6386 6.99415C14.7743 6.1848 15.2889 3.5041 15.3919 3.09708C15.4152 3.00819 15.3217 3.05029 14.8164 3.38714C14.1006 3.85497 13.5486 4.16374 13.4129 4.16374C13.193 4.16374 12.8889 3.67252 12.0609 1.9883C11.6959 1.23977 11.3357 0.49123 11.2609 0.31813C11.186 0.145031 11.1158 0 11.1018 0C11.0878 0 11.0082 0.163744 10.9193 0.364914Z" fill="#F5382C"/>
</svg>
